<?xml version="1.0" encoding="utf-8"?>
<!-- Generator: Adobe Illustrator 22.1.0, SVG Export Plug-In . SVG Version: 6.00 Build 0)  -->
<svg version="1.1" id="Layer_1" xmlns="http://www.w3.org/2000/svg" xmlns:xlink="http://www.w3.org/1999/xlink" x="0px" y="0px"
	 viewBox="0 0 743.9940796 743.9940796" style="enable-background:new 0 0 743.9940796 743.9940796;" xml:space="preserve">
<style type="text/css">
	.st0{fill:#FFFFFF;}
</style>
<g>
	<g>
		<path class="st0" d="M371.9970398,0C166.5487976,0,0,166.5487976,0,371.9970398s166.5487976,371.9970398,371.9970398,371.9970398
			s371.9970398-166.5487061,371.9970398-371.9970398S577.4453735,0,371.9970398,0z M371.9970398,729.855835
			c-197.6399078,0-357.8587646-160.21875-357.8587646-357.8587952S174.357132,14.1382637,371.9970398,14.1382637
			S729.855835,174.357132,729.855835,371.9970398S569.6369629,729.855835,371.9970398,729.855835z"/>
	</g>
	<g>
		<path class="st0" d="M371.9971008,54.7200508c-175.2272339,0-317.2770386,142.0497284-317.2770386,317.276947
			s142.0498199,317.2770386,317.2770386,317.2770386s317.276947-142.0497437,317.276947-317.2770386
			S547.2243042,54.7200508,371.9971008,54.7200508z M425.0619507,136.8361816
			c6.2103577-3.6738739,12.8078003-6.5982208,19.8349304-8.2578278c5.1838684-1.2242661,10.5316467-1.7355499,15.7622681-2.7850342
			c6.4571838-1.2955093,12.9050293-0.5585861,19.2825928,0.1628647c5.0147705,0.5672379,9.9873047,1.8905334,14.8488159,3.3194962
			c4.5161743,1.3274231,8.9604187,3.0184631,13.2512512,4.9588013c3.8795166,1.7543945,7.6403809,3.8584595,11.22052,6.1694183
			c6.8248901,4.4055176,13.0852051,9.5435333,18.6529541,15.4928894
			c7.2365112,7.7324982,13.4700928,16.1819305,17.8826904,25.8383179c2.4992065,5.469223,4.9111328,11.0199738,6.7792358,16.7250366
			c2.1725464,6.634079,3.6484985,13.4881287,3.8455811,20.5354156c0.1729736,6.1815491,0.6543579,12.3756714,0.4106445,18.5409698
			c-0.1878662,4.749115-1.0878296,9.5028534-2.0300293,14.1822662c-1.5827026,7.8602753-4.0770264,15.4452972-7.7616577,22.6048737
			c-0.6210938,1.2068787-1.1640015,2.4547119-1.7194824,3.6941528c-0.4163208,0.9286499-0.9007568,1.1035156-1.8337402,0.512146
			c-6.3936157-4.0530396-12.8815308-7.9602356-19.218811-12.0986633
			c-6.1906128-4.0426636-12.421814-8.0622864-18.3054199-12.5267181c-8.75-6.6395569-17.3122864-13.5380249-25.7674866-20.5518646
			c-10.7592468-8.9251404-20.8074951-18.6342163-30.2290344-28.9574585
			c-5.9422302-6.51091-11.7995911-13.1255798-17.2866821-20.0187531
			c-6.8262634-8.57547-13.3326721-17.4126434-19.7751465-26.2835541c-3.1661377-4.3597412-5.8768616-9.0502167-9.0123291-13.9314423
			C417.6596985,141.6750946,421.2600098,139.0852203,425.0619507,136.8361816z M377.3024902,212.9736176
			c0.2991028-4.2818604,1.1929321-8.5522003,2.1627197-12.7490845c1.0226746-4.4253998,2.1564636-8.8691864,3.7733765-13.1018219
			c1.9226379-5.0329437,4.2750549-9.9184875,6.7051392-14.7347107c1.5220947-3.0166473,3.530304-5.7880249,5.5742798-9.0782013
			c36.2011719,57.9716339,84.0336914,103.252243,142.0527954,138.1545258
			c-4.692688,4.9393005-9.796814,8.9335327-15.3839111,12.2492676c-4.1031494,2.4351807-8.31073,4.7842102-12.7034302,6.6160889
			c-4.2738037,1.7822876-8.8117065,2.9687805-13.2921143,4.2051392c-3.080658,0.8500977-6.2345886,1.6300964-9.4034424,1.9191895
			c-4.5193481,0.4123535-9.0825195,0.3418884-13.6266785,0.4858093c-6.3526611,0.2011414-12.5889893-0.5216675-18.6893921-2.3345947
			c-4.3574219-1.2950439-8.8303528-2.2965698-13.0472107-3.9503784
			c-8.9535217-3.5114136-17.1793213-8.3744507-24.7435608-14.3439026
			c-9.2782593-7.322052-16.9742432-16.0730896-23.28125-26.0230103c-4.3437805-6.8529053-7.9909058-14.074585-10.3337097-21.8968811
			c-1.0047607-3.3547821-2.3132629-6.6316833-3.1170044-10.0306854c-1.5078125-6.3761292-2.8524475-12.7935944-2.7567749-19.4171906
			C377.2691345,223.618927,376.9324341,218.2732544,377.3024902,212.9736176z M562.0684204,591.1654663
			c-7.302063,3.0462036-15.296936-0.3927002-19.1305542-7.2647705c-4.2219238-7.567688-8.5523071-15.1314697-13.534668-22.2045288
			c-6.3579712-9.0257568-13.0042725-17.9212036-20.2959595-26.1946411
			c-6.4562988-7.3255005-13.8158569-13.8874512-21.0525513-20.4838867
			c-7.6339722-6.9587402-16.4950867-12.1864319-25.6019287-17.0046997
			c-6.3853455-3.378418-13.0818176-6.0231934-20.0121155-7.8900757c-4.8928528-1.3180847-10.0057678-1.9309082-15.0608215-2.5002441
			c-3.91922-0.4414063-7.9022827-0.4680176-11.8545837-0.4300537c-6.3139343,0.0606689-12.589386,0.9434509-18.5560608,2.9043579
			c-7.223999,2.374115-13.7911682,6.1859436-19.8227234,10.8669128
			c-8.9076233,6.9129944-16.6282043,15.0276184-23.6933899,23.7550354
			c-5.6516113,6.9810181-11.1179504,14.1185913-16.4812317,21.324646
			c-4.9774475,6.6877441-9.6021729,13.6380005-14.5756836,20.3287964
			c-6.9671936,9.3729858-13.9993896,18.6925049-22.0857849,27.1776123
			c-5.6202698,5.8973389-11.4740601,11.5012207-18.2096863,16.0822144
			c-5.6019897,3.8099976-11.5586548,6.9012451-18.1035156,8.9726563c-6.0191345,1.9049072-12.1277008,2.9182739-18.3450165,2.862915
			c-7.4329071-0.065979-14.7534485-1.4760132-21.6197052-4.350647c-7.3129425-3.0616455-14.2613983-6.7972412-20.7617493-11.4939575
			c-8.3884735-6.0610352-16.1497192-12.7280884-22.8074493-20.6196289
			c-5.2266541-6.1950073-9.4855499-13.0250244-12.378067-20.659729c-2.9635773-7.8225708-4.456955-15.902771-3.7886658-24.2353516
			c0.3324585-4.1450806,1.3538666-8.2462769,2.2164612-12.335083c1.8679352-8.8548584,6.117691-16.6668091,11.131012-24.0450134
			c2.8581085-4.2063904,6.1014557-8.1824341,9.4822845-11.9858093c1.2654114-1.4236755,1.16716-2.5854492,0.7049103-3.9654846
			c-1.8056488-5.3902893-2.2512665-10.7696228-1.1879272-16.4481506c0.9421844-5.0318604,2.8752136-9.4664917,5.9519501-13.415802
			c2.8480072-3.6557007,5.947052-7.1156616,8.9286041-10.6676331c5.8256226-6.9399109,11.6246033-13.9022217,17.4749298-20.821167
			c6.6278381-7.8384399,13.3419952-15.6043091,19.9418488-23.466217
			c7.5300293-8.969635,14.9573669-18.0253296,22.4632568-27.0154724c5.8857117-7.049408,11.8222961-14.0565186,17.737793-21.0811157
			c4.9213257-5.8439941,9.8329163-11.6961365,14.7706604-17.5261841c4.6720276-5.5161438,9.4117126-10.9752808,14.0505676-16.519104
			c5.6972656-6.8087769,11.2886963-13.7061768,16.9841309-20.516571
			c7.7137451-9.2237549,15.4825134-18.4015808,23.2282715-27.5986023
			c4.3998413-5.2242432,8.8006287-10.4475403,13.3748779-15.8777161c0.8963318,3.920929,1.4706726,7.6665344,2.6372681,11.2175293
			c1.3901062,4.2311096,2.9395142,8.4839478,5.0497437,12.3868408c3.0113525,5.5696716,6.3883362,10.9724731,9.9830933,16.1888428
			c5.2813416,7.6639404,11.2619629,14.7795105,18.4622192,20.758667
			c7.0100708,5.8211975,14.5942383,10.8096924,22.8349304,14.6896057
			c6.8108826,3.2066345,13.7781067,6.0834656,20.7012939,9.0473328c1.2963562,0.5550232,2.7121582,0.8310547,4.4515381,1.3484802
			c-1.4569092,1.2971497-2.6239014,2.3884583-3.8451843,3.4150696c-7.3293762,6.160675-14.6508789,12.3309631-22.0150452,18.4499207
			c-6.570343,5.4593201-13.2174072,10.8262329-19.7852478,16.2886353
			c-7.5557861,6.2839355-15.0566711,12.633728-22.5905457,18.9441833
			c-7.1357422,5.9768677-14.2884216,11.9337158-21.4244385,17.9103699
			c-9.9105835,8.3006897-19.8092651,16.6156311-29.7194824,24.9167175
			c-7.1362305,5.9775085-14.3003235,11.9217834-21.4205017,17.918335
			c-8.0460205,6.7762756-16.0307922,13.6256104-24.0910339,20.3848572
			c-6.6032104,5.5375061-13.3149719,10.9457703-19.9117737,16.4908447
			c-7.7560425,6.5195618-15.3845062,13.1923828-23.2137299,19.6217651
			c-1.1993713,0.9849854-3.1628723,1.3377075-4.8034363,1.4276123c-3.8742371,0.2124023-7.8180695,0.4916992-11.6389465,0.0031128
			c-4.9395752-0.6316528-9.6058197-2.4813232-14.1215973-5.053894c-1.8052673,2.5361938-3.729248,5.0413818-5.4337463,7.6879883
			c-1.8181458,2.8231201-3.8840332,5.6125488-5.0241852,8.71698c-1.7441101,4.7490234-3.0287628,9.6533813-2.8201294,14.8986206
			c0.3248596,8.1671753,3.8952789,14.8795166,8.7663116,21.0393066
			c5.3253937,6.7345581,11.9608154,12.1200562,18.9064026,17.0496826
			c5.2140503,3.7006226,10.9083405,6.7790527,17.1316071,8.3756104c4.3372498,1.1125488,8.8228455,1.4799805,13.408432,0.4591675
			c7.2381287-1.6113281,13.0345154-5.6056519,18.6361389-10.1295166
			c7.513092-6.0675049,13.4613037-13.5761108,19.3476868-21.1002197c5.92099-7.5682373,11.4455872-15.4454956,17.1927795-23.1508789
			c6.9888306-9.3703003,13.868927-18.8279419,21.0907288-28.0162354
			c7.4829102-9.5206299,15.6372986-18.4317322,24.8845825-26.3461609
			c6.9790344-5.9730835,14.3368835-11.2325439,22.5362549-15.4142151
			c5.7418823-2.9284058,11.6665039-5.2225342,17.9080505-6.6844482c3.0341492-0.7107849,6.1947021-0.8763428,9.236145-1.5627136
			c8.0097961-1.8077393,16.1335754-1.3070374,24.1947021-1.059082c5.4003906,0.1660156,10.787384,1.2872314,16.1431885,2.1998291
			c3.7153931,0.6329956,7.4205017,1.4587402,11.0331421,2.526886c3.7792358,1.1173706,7.524231,2.4396057,11.1362,4.0122986
			c4.9088135,2.1374207,9.8434753,4.3106079,14.4642639,6.9906616c6.0186768,3.4909973,11.8910217,7.283905,17.5466614,11.3373413
			c5.351532,3.8354797,10.4391785,8.0602417,15.467865,12.3203735c7.8237305,6.6281128,14.9226685,14.0169983,21.3804932,21.9632263
			c6.3894043,7.8618164,12.7244873,15.7988892,18.5492554,24.0787354c4.9467163,7.0314331,9.2372437,14.536438,13.604187,21.9579468
			c1.7965088,3.0532837,3.4616699,6.3134766,4.4304199,9.696228
			C572.583313,581.2287598,568.0472412,588.6713867,562.0684204,591.1654663z"/>
	</g>
</g>
</svg>
