<?xml version="1.0" encoding="utf-8"?>
<!-- Generator: Adobe Illustrator 22.1.0, SVG Export Plug-In . SVG Version: 6.00 Build 0)  -->
<svg version="1.1" id="Isolation_Mode" xmlns="http://www.w3.org/2000/svg" xmlns:xlink="http://www.w3.org/1999/xlink" x="0px"
	 y="0px" viewBox="0 0 594.3196411 735.0690918" style="enable-background:new 0 0 594.3196411 735.0690918;" xml:space="preserve">
<style type="text/css">
	.st0{fill:#97c959;}
</style>
<g>
	<path class="st0" d="M141.1023865,503.8049011c0.3042908,1.7831421-0.1430511,3.4006958-1.8674469,4.1908875
		c-3.6197815,1.6586609-7.2477417,3.333374-10.9844666,4.6934814c-3.8850098,1.4141235-3.7104645-2.2689819-3.8023758-4.0271606
		c-0.4273148-8.1688843-2.3256378-16.1152344-3.2727814-24.2012024c-1.60112-13.6705627-3.6771545-27.2854919-5.5578995-40.9232483
		c-0.0452881-0.3288879-0.1544037-0.6485901-0.2090836-0.9766846c-1.293541-7.746582-1.3231964-7.8181152-8.4543839-4.7981873
		c-24.9086304,10.5482178-49.8001709,21.137146-74.6843872,31.7426147
		c-5.1643925,2.2009583-6.5149307,1.3695984-7.1875763-3.9920044c-1.6930256-13.4920959-3.6024551-26.9568481-5.3635864-40.4405823
		c-2.2775478-17.4363403-4.1153917-34.9407654-6.8706627-52.3002625
		c-1.8728123-11.7994385-3.4302349-23.6378479-4.930841-35.4726868c-1.2940273-10.205719-2.9086938-20.3739014-4.1748319-30.5849609
		c-1.0786614-8.699707-2.0092092-17.4646606-3.5602238-26.1138c-0.5263014-2.9347534-0.0228243-4.7536316,3.01299-5.7835693
		c2.9808896-1.0112915,5.8705425-2.2479858,8.9034882-3.1784668c3.3612747-1.0312195,4.2260952,0.3496704,4.4864388,3.1876221
		c1.5167789,16.5299988,4.7631989,32.8323364,6.3584576,49.3701782c0.7126808,7.3894653,2.5210476,14.7045898,2.932373,22.1960144
		c0.1365795,2.4897461,1.2443504,3.8858643,4.3428402,2.657959c26.0737667-10.3325806,52.2105179-20.5057678,78.3056412-30.7846375
		c5.6917953-2.2419739,6.2804642-2.1032104,7.47258,4.1031799c2.6006241,13.5381165,4.0735855,27.2375488,5.7557449,40.911499
		c1.4983521,12.1797791,3.7595444,24.2677917,5.1709824,36.4556885c2.0428314,17.6411438,5.0273285,35.1502991,6.9919281,52.8085938
		c0.8545074,7.6800537,2.0873871,15.4144287,3.6195374,23.0741882
		C139.3875122,484.881897,139.9701996,494.3983459,141.1023865,503.8049011z M31.4956093,386.5689392
		c2.061264,14.2724304,3.8809853,27.2540894,5.8338661,40.2156677c0.8455963,5.6126709,1.367382,5.8609314,6.5508156,3.6933594
		c20.8394356-8.7147827,41.6317558-17.5435181,62.5266075-26.1228943c2.9959641-1.2301636,3.5145721-2.6919556,3.0945816-5.6419067
		c-1.9185867-13.4734192-3.6594543-26.9729919-5.3461304-40.4779053c-0.4079132-3.2657471-1.3081894-4.2336731-4.7602692-2.8387146
		c-21.2292786,8.5786438-42.5429001,16.9486694-63.8400421,25.3587646
		C32.221714,382.0715942,31.0153217,384.4297791,31.4956093,386.5689392z"/>
	<g>
		<path class="st0" d="M227.9792175,531.8640137c0-158.7226257,96.0419922-186.0185242,136.480957-275.9950867
			c24.2631836-53.5810547,4.0439453-120.3056641-71.7788086-120.3056641c-44.4829102,0-89.9765625,26.2851563-95.03125,78.8564453
			H73.300499c0-143.5585938,100.0859451-211.2929688,220.3916016-214.3261719
			c121.3164063-3.0332031,226.457489,67.7353516,226.457489,208.2597656
			c0,127.3828125-158.7226257,179.953125-158.7226257,323.5107117H227.9792175z M212.8146667,658.2351074
			c0-47.515625,36.3945313-77.8447266,83.9101563-77.8447266c47.5161133,0,81.8886719,30.3291016,81.8886719,77.8447266
			c0,45.4941406-34.3725586,76.8339844-81.8886719,76.8339844
			C249.209198,735.0690918,212.8146667,703.729248,212.8146667,658.2351074z"/>
	</g>
	<g>
		<g>
			<circle class="st0" cx="448.2529907" cy="588.3348389" r="23.8395252"/>
			<path class="st0" d="M448.2529907,619.1972046c-17.0182495,0-30.864502-13.8431396-30.864502-30.8613892
				s13.8462524-30.864502,30.864502-30.864502s30.864502,13.8462524,30.864502,30.864502
				S465.2712402,619.1972046,448.2529907,619.1972046z M448.2529907,571.5183105
				c-9.2720032,0-16.8143921,7.5454712-16.8143921,16.8175049s7.5423889,16.8143921,16.8143921,16.8143921
				s16.8143921-7.5423584,16.8143921-16.8143921S457.5249939,571.5183105,448.2529907,571.5183105z"/>
		</g>
		<g>
			<circle class="st0" cx="563.454834" cy="631.7158813" r="23.8395252"/>
			<path class="st0" d="M563.4551392,662.579895c-17.0182495,0-30.864502-13.8462524-30.864502-30.864502
				s13.8462524-30.8614502,30.864502-30.8614502s30.864502,13.8432007,30.864502,30.8614502
				S580.4733887,662.579895,563.4551392,662.579895z M563.4551392,614.901001
				c-9.2720337,0-16.8143921,7.5423584-16.8143921,16.8143921c0,9.2719727,7.5423584,16.8175049,16.8143921,16.8175049
				s16.8143921-7.5455322,16.8143921-16.8175049C580.2695313,622.4433594,572.7271729,614.901001,563.4551392,614.901001z"/>
		</g>
		<g>
			<polygon class="st0" points="594.3196411,631.7153931 580.2695313,631.7153931 580.2695313,488.8609009 479.1174927,450.7536011 
				479.1174927,588.3358154 465.0673828,588.3358154 465.0673828,430.4490662 594.3196411,479.1379395 			"/>
		</g>
		<g>
			
				<rect x="522.6688843" y="440.3293457" transform="matrix(0.3553356 -0.9347388 0.9347388 0.3553356 -127.7194138 818.7156372)" class="st0" width="14.0492678" height="123.2452774"/>
		</g>
	</g>
</g>
</svg>
