<?xml version="1.0" encoding="utf-8"?>
<!-- Generator: Adobe Illustrator 22.1.0, SVG Export Plug-In . SVG Version: 6.00 Build 0)  -->
<svg version="1.1" id="Layer_1" xmlns="http://www.w3.org/2000/svg" xmlns:xlink="http://www.w3.org/1999/xlink" x="0px" y="0px"
	 viewBox="0 0 572.9719238 572.9719238" style="enable-background:new 0 0 572.9719238 572.9719238;" xml:space="preserve">
<style type="text/css">
	.st0{fill:#D15045;stroke:#FFFFFF;stroke-width:12;stroke-miterlimit:10;}
	.st1{fill:#73BCB7;}
	.st2{fill:none;stroke:#FFFFFF;stroke-width:12;stroke-miterlimit:10;}
	.st3{fill:#FFFFFF;}
</style>
<circle class="st0" cx="286.4859619" cy="286.4859619" r="280.4859619"/>
<polygon class="st1" points="188.2401428,100.5958939 188.2401428,465.1752319 503.9750977,282.8855591 "/>
<g>
	<polygon class="st2" points="188.2401428,100.5958939 188.2401428,465.1752319 503.9750977,282.8855591 	"/>
	<g>
		<g>
			
				<ellipse transform="matrix(0.8170509 -0.5765655 0.5765655 0.8170509 -124.5833206 193.3541107)" class="st3" cx="242.3868713" cy="292.9897156" rx="16.4781647" ry="16.6677055"/>
			<path class="st3" d="M242.3868713,314.4850464c-11.8083801-0.1277161-21.415802-9.87323-21.415802-21.7262878
				c0-11.8530273,9.6074219-21.3928528,21.415802-21.2651367c11.8083649,0.1277161,21.415802,9.8753967,21.415802,21.7284241
				C263.8026733,305.0751038,254.1952362,314.612793,242.3868713,314.4850464z M242.3868713,281.2772217
				c-6.4335327-0.0696106-11.6669312,5.1291504-11.6669312,11.5870056s5.2333984,11.7676392,11.6669312,11.8372498
				c6.4335175,0.0695801,11.6669312-5.1270142,11.6669312-11.5848694S248.8203888,281.3468018,242.3868713,281.2772217z"/>
		</g>
		<g>
			
				<ellipse transform="matrix(0.8748551 -0.4843848 0.4843848 0.8748551 -121.1006165 197.836319)" class="st3" cx="322.3213806" cy="333.2835999" rx="16.5135479" ry="16.6319923"/>
			<path class="st3" d="M322.3215942,354.7800293c-11.8083496-0.0717773-21.415802-9.7739563-21.415802-21.6269836
				s9.6074524-21.4362488,21.415802-21.3644409c11.8083801,0.0718079,21.415802,9.7718201,21.415802,21.6248474
				S334.1299744,354.8518372,322.3215942,354.7800293z M322.3215942,321.5722046
				c-6.4335327-0.0391235-11.6669312,5.182251-11.6669312,11.6401062s5.2333984,11.7450256,11.6669312,11.7841492
				s11.6669312-5.1844177,11.6669312-11.6422729S328.755127,321.6113281,322.3215942,321.5722046z"/>
		</g>
		<g>
			<polygon class="st3" points="343.7373962,333.4134521 333.9885254,331.4624329 333.9885254,231.9658203 263.8026733,191.3783569 
				263.8026733,294.8516541 254.0538025,292.9006348 254.0538025,175.2854462 343.7373962,227.1449127 			"/>
		</g>
		<g>
			<polygon class="st3" points="337.1313782,261.5368347 257.1966248,215.0380096 260.6598511,206.584259 340.594574,253.0830688 
							"/>
		</g>
	</g>
</g>
</svg>
