<?xml version="1.0" encoding="utf-8"?>
<!-- Generator: Adobe Illustrator 22.1.0, SVG Export Plug-In . SVG Version: 6.00 Build 0)  -->
<svg version="1.1" id="Layer_1" xmlns="http://www.w3.org/2000/svg" xmlns:xlink="http://www.w3.org/1999/xlink" x="0px" y="0px"
	 viewBox="0 0 575.9719238 575.9719238" style="enable-background:new 0 0 575.9719238 575.9719238;" xml:space="preserve">
<style type="text/css">
	.st0{fill:#A6C860;stroke:#FFFFFF;stroke-width:15;stroke-miterlimit:10;}
	.st1{fill:none;stroke:#FFFFFF;stroke-width:15;stroke-miterlimit:10;}
	.st2{fill:#FFFFFF;}
</style>
<g>
	<circle class="st0" cx="287.9859619" cy="287.9859619" r="280.4859619"/>
	<g>
		<g>
			<g>
				<path class="st1" d="M175.5542297,152.5727997c30.4921875-25.3453369,69.6821289-40.586792,112.4316406-40.586792
					c97.2021484,0,176,78.7978516,176,176.0000153"/>
				<g>
					<polygon class="st2" points="252.9712219,174.3387909 254.7832336,159.4354706 181.3545227,150.5911102 
						195.5415344,77.9950409 180.8042297,75.1296844 163.5439758,163.5470428 					"/>
				</g>
			</g>
		</g>
		<g>
			<g>
				<path class="st1" d="M400.417511,423.399231c-30.4921875,25.3453369-69.6818848,40.586792-112.4316406,40.586792
					c-97.2021484,0-176-78.7979736-176-176"/>
				<g>
					<polygon class="st2" points="323.0005188,401.6331177 321.1889954,416.536438 394.6174622,425.3807983 
						380.4304504,497.9768677 395.167511,500.8423462 412.4282532,412.4248657 					"/>
				</g>
			</g>
		</g>
	</g>
	<g>
		<g>
			<g>
				<circle class="st2" cx="267.849762" cy="334.9544678" r="23.8395252"/>
				<path class="st2" d="M267.8500671,365.8170776c-17.0182495,0-30.864502-13.8431396-30.864502-30.8613892
					c0-17.01828,13.8462524-30.864502,30.864502-30.864502s30.864502,13.8462219,30.864502,30.864502
					C298.7145691,351.973938,284.8683167,365.8170776,267.8500671,365.8170776z M267.8500671,318.1381836
					c-9.2720032,0-16.8144073,7.5454712-16.8144073,16.8175049c0,9.2720032,7.5424042,16.8143921,16.8144073,16.8143921
					s16.8143921-7.5423889,16.8143921-16.8143921C284.6644592,325.6836548,277.1220703,318.1381836,267.8500671,318.1381836z"/>
			</g>
			<g>
				<rect x="284.6644592" y="187.2211761" class="st2" width="14.0500965" height="147.7344971"/>
			</g>
		</g>
		<g>
			<path class="st2" d="M361.2744141,282.8785706h-14.0501099c-0.0123596-0.7350769-0.5605774-19.4026489-21.9198608-29.1101532
				c-28.1496277-12.7961273-39.5666809-37.9930115-40.0376892-39.0585938l12.8455505-5.6892242l-6.4227905,2.8446198
				l6.4150696-2.8631439c0.0957336,0.2131042,9.8789063,21.459671,33.0126038,31.9733124
				C360.9315796,254.5282135,361.2744141,281.726532,361.2744141,282.8785706z"/>
		</g>
	</g>
</g>
</svg>
